<svg height="25" viewBox="0 0 244 25" width="244" xmlns="http://www.w3.org/2000/svg" xmlns:xlink="http://www.w3.org/1999/xlink"><mask id="a" fill="#fff"><path d="m.00000751.0099869h242.99299549v24.028471h-242.99299549z" fill="#fff" fill-rule="evenodd"/></mask><g fill="#020303" fill-rule="evenodd" transform="translate(0 -.5)"><path d="m229.144688 18.0655899c1.053388 0 1.909597.6417184 1.909597 1.7314313 0 1.0058082-.770576 1.6733675-1.995924 1.6178418.200992.6146085.855608.8095462 1.453437.8095462 1.282717 0 2.165329-1.4783745 3.504777-4.1026315l-5.242997-9.51656391h-1.510806v-2.03742055h6.41366v2.03742055h-1.398076l-.597829.61335781 3.562072 6.7256194 3.533115-6.7256194-.569548-.61335781h-1.396743v-2.03742055h6.18358v2.03742055h-1.538468l-5.58577 10.21439661c-1.623462 2.9851465-2.849485 5.2188475-5.356967 5.2188475-2.108635 0-3.704511-1.3673048-3.704511-3.4602694 0-1.3673416.997371-2.5125986 2.337401-2.5125986zm-7.983752-9.1537064c.144392 0 .315769.02843417.428499.08454843-.029032-.08454843-.086402-.19620681-.200409-.30858248-.197761-.33370608-.654541-.58485007-1.42448-.58485007-1.879869 0-3.618108 1.59067668-5.698387 4.01938892v3.3763647l.883213.8663594h4.786837v2.0355078h-11.027092v-2.0355078h2.337382l.883269-.8663594v-6.02778675l-.883269-.86575246h-2.337382v-2.03742055h5.357042v3.09752222c1.56812-1.9528905 3.504101-3.48875875 5.641694-3.48875875 2.707215 0 3.81925 1.73016229 3.81925 3.35059737 0 1.25498422-.82667 2.48227002-2.22407 2.48227002-1.053313 0-1.880564-.53006-1.880564-1.6733859 0-.83731829.655874-1.4241547 1.538467-1.4241547zm-18.210615 2.4293192c-.454808-1.70432141-1.850255-3.12588282-4.045293-3.12588282-2.109311 0-3.933182 1.2272122-4.387971 3.26404422h8.461602zm-3.788884 7.4499735c-4.161235 0-7.039151-2.7346463-7.039151-6.3066476 0-3.5726451 2.877916-6.30797189 6.782742-6.30797189 4.530467 0 6.723476 3.46032458 6.723476 7.03298809h-11.170188c.313797 1.8980085 1.882593 3.517763 4.703121 3.517763 1.794256 0 3.334076-.5868364 4.814498-1.7863685l1.197724 1.5055581c-1.88126 1.564891-3.902892 2.3446788-6.012222 2.3446788zm-13.454783-9.60103877c-.597828-.53064858-1.566167-.97481755-3.104635-.97481755-2.3374 0-4.645093 1.56231607-4.645093 4.26920872 0 2.1491525 1.45278 4.1859293 4.645093 4.1859293 1.852265 0 3.333401-.6978327 4.846142-1.8689306l1.27943 1.6449701c-1.908226 1.564891-3.960918 2.3446788-6.125572 2.3446788-4.188332 0-7.123543-2.7346463-7.123543-6.3066476 0-3.5726451 3.247656-6.30797189 7.180894-6.30797189 3.618785 0 5.954233 1.8980085 5.954233 4.10329369 0 1.2272857-.938029 2.2046782-2.079021 2.2046782-1.140372 0-1.937934-.8657341-1.937934-1.8702365 0-.64169999.369758-1.17176002 1.110006-1.42415467zm-18.637086-9.1801542c1.252427 0 2.193686.92061606 2.193686 2.14850877 0 1.14457654-.941259 2.06453048-2.193686 2.06453048-1.168672 0-2.107959-.91995394-2.107959-2.06453048 0-1.22789271.939287-2.14850877 2.107959-2.14850877zm2.450094 16.35512917h4.018251v2.0355078h-12.567551v-2.0355078h4.646446l.881917-.8663594v-6.02778675l-.881917-.86575246h-4.646446v-2.03742055h7.666031v8.93095976zm-14.422444-9.79731916v8.93095976l.883306.8663594h1.539144v2.0355078h-4.560118v-1.8973464c-.797525 1.089106-2.307073 2.2879024-4.330658 2.2879024-2.649827 0-4.673431-1.535151-4.673431-4.464827v-4.85538295l-.881992-.86575246h-1.539764v-2.03742055h4.559424v6.94774076c0 2.0400138.655217 3.2117738 2.621433 3.2117738 1.966271 0 3.306377-1.0051645 4.244988-2.7637425v-4.49259905l-.883251-.86575246h-1.53781v-2.03742055zm-18.656241-6.55781001c1.255056 0 2.195019.92061606 2.195019 2.14850877 0 1.14457654-.939963 2.06453048-2.195019 2.06453048-1.195658 0-2.107283-.91995394-2.107283-2.06453048 0-1.22789271.911625-2.14850877 2.107283-2.14850877zm-7.606707 16.79929817c1.282735 0 2.080316.8379804 2.080316 1.8437886 0 .8637661-.74222 1.674655-1.711178 1.7004223.400142 1.0613707 1.597152 1.7320751 2.963586 1.7320751 2.452065 0 3.763833-1.5642289 3.763833-4.5209413v-8.09365985l-.885241-.86575246h-5.784789v-2.03742055h8.805651v11.13499426c0 4.0464989-2.506731 6.2246741-5.899454 6.2246741-3.132991 0-5.641769-2.1484904-5.641769-4.5771291 0-1.4241731.99737-2.5410511 2.309045-2.5410511zm-16.429561-5.7211355c-.969615-1.67331231-2.251055-2.84573448-4.41706-2.84573448-2.451408 0-3.961539 1.84123208-3.961539 4.24211718 0 2.3996343 1.510131 4.2427792 3.961539 4.2427792 2.166005 0 3.447445-1.17176 4.41706-2.8470587zm2.136316-9.79474425v14.62369785l.457512.4480129h1.509436v2.0355078h-4.103264v-1.9818948c-.769281 1.1459007-2.336725 2.3724508-4.588456 2.3724508-3.561396 0-6.183223-2.7617562-6.183223-6.3066476 0-3.51645727 2.621827-6.30797189 6.183223-6.30797189 2.251731 0 3.819175 1.22853643 4.588456 2.37318654v-4.77282091l-.455465-.4473508h-2.793561v-2.03616989zm-18.8380965 10.04780105c-.4558222-1.70432141-1.8509314-3.12588282-4.0466449-3.12588282-2.1076212 0-3.9315672 1.2272122-4.3863753 3.26404422h8.4616393zm-3.7902179 7.4499735c-4.159976 0-7.0378171-2.7346463-7.0378171-6.3066476 0-3.5726451 2.8778411-6.30797189 6.7813901-6.30797189 4.5317435 0 6.7250908 3.46032458 6.7250908 7.03298809h-11.1704509c.3131207 1.8980085 1.8825927 3.517763 4.7017871 3.517763 1.7955897 0 3.3343957-.5868364 4.8155126-1.7863685l1.1980238 1.5055581c-1.8805646 1.564891-3.904225 2.3446788-6.0135364 2.3446788zm-18.4960182-5.775999c-2.4784498-.5028766-3.903549-1.4802874-3.903549-3.4324974 0-2.03749411 1.9372583-3.40612309 4.4170038-3.40612309 1.7949137 0 3.4474076.58749853 4.4740544 1.59133879l.5121592-.16843476v-1.0316675h2.0246181v4.18723516h-1.6535079c-1.0546651-1.56489097-3.192314-2.70755474-5.0149078-2.70755474-1.4257565 0-2.4510513.55774013-2.4510513 1.42349259 0 .92127815.9119448 1.19951375 2.2500411 1.47835615l4.4463741.9212598c1.9662719.4183465 3.3053634 1.2563269 3.3053634 3.2369711 0 2.3169987-1.9666099 3.6836229-4.8722063 3.6836229-2.3946955 0-4.1606333-.9205425-5.1295723-1.8979349l-.5128727.3356924v1.1716865h-1.9945718v-4.5203711h1.8522271c1.3677858 1.7301807 3.2767067 3.0129922 5.6701064 3.0129922 1.5101493 0 2.6775258-.5281289 2.6775258-1.7004775 0-.8664146-.7976372-1.1162343-1.8522835-1.3402684zm-15.9318988 0c-2.4784685-.5028766-3.9042438-1.4802874-3.9042438-3.4324974 0-2.03749411 1.9379532-3.40612309 4.4176799-3.40612309 1.7956085 0 3.4484216.58749853 4.4740544 1.59133879l.513192-.16843476v-1.0316675h2.0226463v4.18723516h-1.6528882c-1.0543459-1.56489097-3.1916567-2.70755474-5.0155088-2.70755474-1.4248363 0-2.4507883.55774013-2.4507883 1.42349259 0 .92127815.9116256 1.19951375 2.2523509 1.47835615l4.4453976.9212598c1.9662156.4183465 3.3043681 1.2563269 3.3043681 3.2369711 0 2.3169987-1.9669479 3.6836229-4.8722063 3.6836229-2.3944138 0-4.1602952-.9205425-5.1299103-1.8979349l-.5121779.3356924v1.1716865h-1.9952478v-4.5203711h1.8528844c1.3671097 1.7301807 3.2767066 3.0129922 5.6704444 3.0129922 1.5104121 0 2.6791407-.5281289 2.6791407-1.7004775 0-.8664146-.7992521-1.1162343-1.8522083-1.3402684zm-10.2895477-1.6739745c-.4567611-1.70432141-1.8528844-3.12588282-4.0472645-3.12588282-2.1079593 0-3.9312104 1.2272122-4.3880467 3.26404422h8.4640055zm-3.7901427 7.4499735c-4.1599948 0-7.0385119-2.7346463-7.0385119-6.3066476 0-3.5726451 2.8785171-6.30797189 6.7813901-6.30797189 4.5307669 0 6.7261423 3.46032458 6.7261423 7.03298809h-11.1708076c.3137404 1.8980085 1.8805646 3.517763 4.7017871 3.517763 1.7955146 0 3.3333816-.5868364 4.8154938-1.7863685l1.1970285 1.5055581c-1.8809026 1.564891-3.903887 2.3446788-6.0125223 2.3446788zm-12.7125807-9.8792927c.1423447 0 .3140409.02843417.4284612.08454843-.0290323-.08454843-.0857073-.19620681-.1984375-.30858248-.1993764-.33370608-.6568324-.58485007-1.4267142-.58485007-1.8799449 0-3.6184841 1.59067668-5.6984439 4.01938892v3.3763647l.8832693.8663594h4.7874568v2.0355078h-11.0280498v-2.0355078h2.33603l.8855791-.8663594v-6.02778675l-.8855791-.86575246h-2.33603v-2.03742055h5.3573237v3.09752222c1.5677632-1.9528905 3.5044206-3.48875875 5.6420882-3.48875875 2.7064641 0 3.8188558 1.73016229 3.8188558 3.35059737 0 1.25498422-.8269512 2.48227002-2.2230557 2.48227002-1.053989 0-1.8812594-.53006-1.8812594-1.6733859 0-.83731829.6562315-1.4241547 1.5385055-1.4241547zm-26.58891352 4.9683656c.96901414 1.6752987 2.2514119 2.8470587 4.41767991 2.8470587 2.45045031 0 3.98959431-1.8431449 3.98959431-4.2427792 0-2.4008851-1.539144-4.24211718-3.98959431-4.24211718-2.16626801 0-3.44866577 1.17242217-4.41767991 2.84573448zm0 7.2847942.45649822.4460817h2.79252821v2.0367768h-7.3526279v-2.0367768h1.51148254l.45445131-.4460817v-12.11308565l-.45445131-.44674386h-1.51148254v-2.03742055h4.10360147v1.98195001c.79763717-1.14465011 2.36643315-2.37318654 4.61707512-2.37318654 3.5324388 0 6.15359 2.76376096 6.15359 6.30797189 0 3.5164572-2.6211512 6.3066476-6.15359 6.3066476-2.25064197 0-3.81943795-1.2265501-4.61707512-2.3724508z" mask="url(#a)" transform="translate(0 .5)"/><path d="m241.136305 20.8797327h.26704c.311742 0 .564257-.1060863.564257-.363941 0-.2269814-.163112-.3787282-.519555-.3787282-.14863 0-.252537.0148088-.311742.0295959zm-.014526 1.4088264h-.564257v-2.484585c.222318-.0456387.534081-.0764904.935226-.0764904.460371 0 .666997.0764904.845802.1825984.132937.1048739.236844.3022378.236844.5452621 0 .2726418-.207835.4848361-.503864.5748796v.0308516c.236823.0912992.370948.2726419.444658.6057313.074898.3787281.118412.5304532.178826.6217524h-.608979c-.07371-.0912992-.118433-.3182806-.193331-.6069436-.043513-.2726419-.192142-.3935587-.503884-.3935587h-.267041zm-1.499483-1.3039524c0 1.1065669.802289 1.98494 1.899461 1.98494 1.069329 0 1.854759-.8783731 1.854759-1.9689188 0-1.1065887-.78543-1.9997489-1.869264-1.9997489-1.082667 0-1.884956.8931602-1.884956 1.9837277zm4.377704 0c0 1.4100604-1.082667 2.5153933-2.492748 2.5153933-1.394409 0-2.507252-1.1053329-2.507252-2.5153933 0-1.3780181 1.112843-2.4846067 2.507252-2.4846067 1.410081 0 2.492748 1.1065886 2.492748 2.4846067z"/></g></svg>